<mxfile host="65bd71144e">
    <diagram id="-Mg5cHWZaOCNX7nT4-NO" name="Page-1">
        <mxGraphModel dx="1572" dy="954" grid="1" gridSize="10" guides="1" tooltips="1" connect="1" arrows="1" fold="1" page="1" pageScale="1" pageWidth="1169" pageHeight="827" math="0" shadow="0">
            <root>
                <mxCell id="0"/>
                <mxCell id="1" parent="0"/>
                <mxCell id="2" value="" style="strokeWidth=1;shadow=0;dashed=0;align=center;html=1;shape=mxgraph.mockup.containers.browserWindow;rSize=0;strokeColor=#666666;strokeColor2=#008cff;strokeColor3=#c4c4c4;mainText=,;recursiveResize=0;" parent="1" vertex="1">
                    <mxGeometry x="20" y="20" width="1100" height="780" as="geometry"/>
                </mxCell>
                <mxCell id="25" value="Film/serie TV 2" style="rounded=0;whiteSpace=wrap;html=1;" parent="2" vertex="1">
                    <mxGeometry x="570" y="181.19" width="457.99" height="242.81" as="geometry"/>
                </mxCell>
                <mxCell id="24" value="Film/serie TV 1" style="rounded=0;whiteSpace=wrap;html=1;" parent="2" vertex="1">
                    <mxGeometry x="66.01" y="181.19" width="463.99" height="242.81" as="geometry"/>
                </mxCell>
                <mxCell id="23" value="Film/serie TV 3" style="rounded=0;whiteSpace=wrap;html=1;" parent="2" vertex="1">
                    <mxGeometry x="66.01" y="480.63" width="463.99" height="242.81" as="geometry"/>
                </mxCell>
                <mxCell id="22" value="Film/serie TV 4" style="rounded=0;whiteSpace=wrap;html=1;" parent="2" vertex="1">
                    <mxGeometry x="570" y="480.63" width="457.99" height="242.81" as="geometry"/>
                </mxCell>
                <mxCell id="3" value="Page 1" style="strokeWidth=1;shadow=0;dashed=0;align=center;html=1;shape=mxgraph.mockup.containers.anchor;fontSize=17;fontColor=#666666;align=left;whiteSpace=wrap;" parent="2" vertex="1">
                    <mxGeometry x="60" y="12" width="110" height="26" as="geometry"/>
                </mxCell>
                <mxCell id="4" value="https://www.streameverything.com" style="strokeWidth=1;shadow=0;dashed=0;align=center;html=1;shape=mxgraph.mockup.containers.anchor;rSize=0;fontSize=17;fontColor=#666666;align=left;" parent="2" vertex="1">
                    <mxGeometry x="130" y="60" width="250" height="26" as="geometry"/>
                </mxCell>
                <mxCell id="5" value="" style="rounded=0;whiteSpace=wrap;html=1;" parent="2" vertex="1">
                    <mxGeometry y="110" width="1080" height="50" as="geometry"/>
                </mxCell>
                <mxCell id="7" value="&lt;font style=&quot;font-size: 40px;&quot; face=&quot;Times New Roman&quot;&gt;&lt;b style=&quot;&quot;&gt;&lt;i style=&quot;&quot;&gt;StreamEveryThing&lt;/i&gt;&lt;/b&gt;&lt;/font&gt;" style="text;html=1;align=center;verticalAlign=middle;whiteSpace=wrap;rounded=0;" parent="2" vertex="1">
                    <mxGeometry x="360" y="110" width="370" height="45" as="geometry"/>
                </mxCell>
                <mxCell id="8" value="" style="rounded=1;whiteSpace=wrap;html=1;" parent="2" vertex="1">
                    <mxGeometry x="405" y="300" width="280" height="320" as="geometry"/>
                </mxCell>
                <mxCell id="26" value="" style="rounded=0;whiteSpace=wrap;html=1;gradientColor=light-dark(#ffffff, #ededed);opacity=80;" parent="2" vertex="1">
                    <mxGeometry y="160" width="1100" height="620" as="geometry"/>
                </mxCell>
                <mxCell id="30" value="Benvenuto, per favore effettua il login" style="text;html=1;align=center;verticalAlign=middle;whiteSpace=wrap;rounded=0;fontSize=25;" parent="2" vertex="1">
                    <mxGeometry x="414" y="344" width="260" height="30" as="geometry"/>
                </mxCell>
                <mxCell id="32" value="Non hai ancora un account?&lt;div&gt;&lt;u&gt;Registrati qua&lt;/u&gt;&lt;/div&gt;" style="text;html=1;align=center;verticalAlign=middle;whiteSpace=wrap;rounded=0;" parent="2" vertex="1">
                    <mxGeometry x="450" y="550" width="200" height="30" as="geometry"/>
                </mxCell>
                <mxCell id="35" value="" style="rounded=0;whiteSpace=wrap;html=1;fontStyle=0" vertex="1" parent="2">
                    <mxGeometry y="110" width="1100" height="130" as="geometry"/>
                </mxCell>
                <mxCell id="36" value="&lt;h1&gt;&lt;font style=&quot;font-size: 40px; color: rgb(0, 0, 255);&quot;&gt;StreamEveryThing&lt;/font&gt;&lt;/h1&gt;" style="ellipse;whiteSpace=wrap;html=1;dashed=1;strokeWidth=3;strokeColor=#666666;fontFamily=Verdana;fontStyle=2;fillColor=#f5f5f5;gradientColor=#b3b3b3;" vertex="1" parent="2">
                    <mxGeometry x="285" y="125" width="530" height="100" as="geometry"/>
                </mxCell>
                <mxCell id="16" value="&lt;u&gt;Password dimenticata?&lt;/u&gt;" style="text;html=1;align=center;verticalAlign=middle;whiteSpace=wrap;rounded=0;" parent="2" vertex="1">
                    <mxGeometry x="440" y="514" width="140" height="30" as="geometry"/>
                </mxCell>
                <mxCell id="10" value="" style="rounded=0;whiteSpace=wrap;html=1;" parent="1" vertex="1">
                    <mxGeometry x="460" y="524" width="210" height="16" as="geometry"/>
                </mxCell>
                <mxCell id="14" value="Password" style="text;html=1;align=center;verticalAlign=middle;whiteSpace=wrap;rounded=0;" parent="1" vertex="1">
                    <mxGeometry x="460" y="494" width="60" height="30" as="geometry"/>
                </mxCell>
                <mxCell id="28" value="" style="rounded=0;whiteSpace=wrap;html=1;" parent="1" vertex="1">
                    <mxGeometry x="460" y="464" width="210" height="16" as="geometry"/>
                </mxCell>
                <mxCell id="29" value="Username" style="text;html=1;align=center;verticalAlign=middle;whiteSpace=wrap;rounded=0;" parent="1" vertex="1">
                    <mxGeometry x="460" y="434" width="60" height="30" as="geometry"/>
                </mxCell>
            </root>
        </mxGraphModel>
    </diagram>
</mxfile>